<svg width="19" height="19" viewBox="0 0 19 19" fill="none" xmlns="http://www.w3.org/2000/svg">
<path d="M1.04021 8.01647H1.03913H8.01568V1.05305C8.01568 0.479964 8.47972 0.000793457 9.0528 0.000793457H9.9455C10.5184 0.000793457 10.9845 0.479964 10.9845 1.05305V8.01647H17.9609C18.5337 8.01647 19 8.47989 19 9.05313V9.95092C19 10.5237 18.5338 10.9851 17.9609 10.9851H10.9843V17.9737C10.9843 18.5465 10.5184 19.0006 9.94534 19.0006H9.05265C8.47956 19.0006 8.01553 18.5463 8.01553 17.9737V10.9851H1.04021C0.467121 10.9851 0 10.5235 0 9.95092V9.05313C0 8.47989 0.467121 8.01647 1.04021 8.01647Z" fill="#1EB8FF"/>
</svg>
