<svg width="20" height="20" viewBox="0 0 20 20" fill="none" xmlns="http://www.w3.org/2000/svg">
<g clip-path="url(#clip0)">
<path d="M18.1201 4.47037L17.6786 3.14667C17.5104 2.64252 17.0403 2.30377 16.509 2.30377H12.7976V1.09543C12.7976 0.491486 12.3065 0 11.7028 0H8.30401C7.70037 0 7.20919 0.491486 7.20919 1.09543V2.30377H3.49795C2.96648 2.30377 2.49636 2.64252 2.32821 3.14667L1.88662 4.47037C1.78606 4.77173 1.83703 5.10544 2.02273 5.36316C2.20843 5.62088 2.50887 5.77484 2.82656 5.77484H3.28814L4.30407 18.3376C4.3796 19.2697 5.17062 20 6.10522 20H14.1077C15.0421 20 15.8333 19.2697 15.9087 18.3374L16.9246 5.77484H17.1802C17.4979 5.77484 17.7983 5.62088 17.984 5.36331C18.1697 5.10559 18.2207 4.77173 18.1201 4.47037V4.47037ZM8.38107 1.17188H11.6257V2.30377H8.38107V1.17188ZM14.7406 18.243C14.7141 18.5712 14.4361 18.8281 14.1077 18.8281H6.10522C5.77685 18.8281 5.49883 18.5712 5.47228 18.243L4.46383 5.77484H15.7489L14.7406 18.243ZM3.07787 4.60297L3.43996 3.51746C3.4482 3.49243 3.47155 3.47565 3.49795 3.47565H16.509C16.5354 3.47565 16.5586 3.49243 16.5669 3.51746L16.929 4.60297H3.07787Z" fill="#3A3939"/>
<path d="M12.8717 18.2014C12.8821 18.202 12.8923 18.2022 12.9027 18.2022C13.2123 18.2022 13.4711 17.9596 13.4873 17.6468L14.0375 7.08434C14.0543 6.76116 13.8059 6.48543 13.4828 6.46865C13.1589 6.45141 12.8841 6.70012 12.8671 7.02331L12.3171 17.5857C12.3003 17.9089 12.5485 18.1847 12.8717 18.2014V18.2014Z" fill="#3A3939"/>
<path d="M6.54556 17.6481C6.56265 17.9605 6.82113 18.2022 7.13012 18.2022C7.1408 18.2022 7.15179 18.2019 7.16262 18.2013C7.48565 18.1837 7.7333 17.9075 7.71575 17.5844L7.13943 7.02192C7.12188 6.69874 6.8457 6.45109 6.52251 6.46879C6.19949 6.48634 5.95184 6.76252 5.96938 7.0857L6.54556 17.6481Z" fill="#3A3939"/>
<path d="M10.0099 18.2022C10.3336 18.2022 10.5959 17.9399 10.5959 17.6163V7.05383C10.5959 6.73019 10.3336 6.4679 10.0099 6.4679C9.68628 6.4679 9.42398 6.73019 9.42398 7.05383V17.6163C9.42398 17.9399 9.68628 18.2022 10.0099 18.2022Z" fill="#3A3939"/>
</g>
<defs>
<clipPath id="clip0">
<rect width="20" height="20" fill="white"/>
</clipPath>
</defs>
</svg>
